<svg width="42" height="42" viewBox="0 0 42 42" fill="none" xmlns="http://www.w3.org/2000/svg">
<path d="M13.125 39.375C14.5747 39.375 15.75 38.1997 15.75 36.75C15.75 35.3003 14.5747 34.125 13.125 34.125C11.6753 34.125 10.5 35.3003 10.5 36.75C10.5 38.1997 11.6753 39.375 13.125 39.375Z" fill="#555555"/>
<path d="M31.5 39.375C32.9497 39.375 34.125 38.1997 34.125 36.75C34.125 35.3003 32.9497 34.125 31.5 34.125C30.0503 34.125 28.875 35.3003 28.875 36.75C28.875 38.1997 30.0503 39.375 31.5 39.375Z" fill="#555555"/>
<path d="M36.75 9.18749H7.63875L6.5625 3.67499C6.50114 3.37407 6.33619 3.10419 6.09638 2.91234C5.85656 2.72048 5.55705 2.6188 5.25 2.62499H0V5.24999H4.17375L9.1875 30.45C9.24886 30.7509 9.41381 31.0208 9.65362 31.2127C9.89344 31.4045 10.1929 31.5062 10.5 31.5H34.125V28.875H11.5762L10.5 23.625H34.125C34.4284 23.6324 34.725 23.5344 34.9643 23.3478C35.2036 23.1611 35.3708 22.8973 35.4375 22.6012L38.0625 10.7887C38.1065 10.594 38.1055 10.3918 38.0595 10.1975C38.0136 10.0032 37.9239 9.82197 37.7973 9.66757C37.6708 9.51316 37.5106 9.38966 37.3292 9.30647C37.1477 9.22328 36.9496 9.18259 36.75 9.18749ZM33.075 21H10.0012L8.16375 11.8125H35.1094L33.075 21Z" fill="#555555"/>
</svg>
