<svg width="39" height="30" viewBox="0 0 39 30" fill="none" xmlns="http://www.w3.org/2000/svg">
<path d="M36.75 7.18749H7.63875L6.5625 1.67499C6.50114 1.37407 6.33619 1.10419 6.09638 0.912335C5.85656 0.720481 5.55705 0.6188 5.25 0.624992H0V3.24999H4.17375L9.1875 28.45C9.24886 28.7509 9.41381 29.0208 9.65362 29.2127C9.89344 29.4045 10.1929 29.5062 10.5 29.5H34.125V26.875H11.5763L10.5 21.625H34.125C34.4284 21.6324 34.725 21.5345 34.9643 21.3478C35.2036 21.1611 35.3708 20.8973 35.4375 20.6012L38.0625 8.78874C38.1065 8.594 38.1055 8.39179 38.0595 8.1975C38.0136 8.00322 37.9239 7.82197 37.7973 7.66757C37.6708 7.51316 37.5106 7.38966 37.3292 7.30647C37.1477 7.22328 36.9496 7.18259 36.75 7.18749ZM33.075 19H10.0013L8.16375 9.81249H35.1094L33.075 19Z" fill="#555555"/>
</svg>
