<svg width="32" height="32" viewBox="0 0 32 32" fill="none" xmlns="http://www.w3.org/2000/svg">
<path d="M30.9925 28.5075L25.0425 22.575C26.9622 20.1293 28.0039 17.1092 28 14C28 11.2311 27.1789 8.52431 25.6406 6.22202C24.1022 3.91973 21.9157 2.12532 19.3576 1.06569C16.7994 0.00606593 13.9845 -0.271181 11.2687 0.269012C8.55301 0.809205 6.05845 2.14258 4.10051 4.10051C2.14258 6.05845 0.809205 8.55301 0.269012 11.2687C-0.271181 13.9845 0.00606593 16.7994 1.06569 19.3576C2.12532 21.9157 3.91973 24.1022 6.22202 25.6406C8.52431 27.1789 11.2311 28 14 28C17.1092 28.0039 20.1293 26.9622 22.575 25.0425L28.5075 30.9925C28.6702 31.1565 28.8637 31.2867 29.077 31.3756C29.2903 31.4644 29.519 31.5102 29.75 31.5102C29.981 31.5102 30.2098 31.4644 30.423 31.3756C30.6363 31.2867 30.8298 31.1565 30.9925 30.9925C31.1565 30.8298 31.2867 30.6363 31.3756 30.423C31.4644 30.2098 31.5102 29.981 31.5102 29.75C31.5102 29.519 31.4644 29.2903 31.3756 29.077C31.2867 28.8637 31.1565 28.6702 30.9925 28.5075ZM3.50001 14C3.50001 11.9233 4.11582 9.89324 5.26958 8.16652C6.42333 6.4398 8.06321 5.09399 9.98183 4.29927C11.9005 3.50455 14.0117 3.29662 16.0485 3.70176C18.0853 4.10691 19.9562 5.10693 21.4246 6.57539C22.8931 8.04384 23.8931 9.91476 24.2983 11.9516C24.7034 13.9884 24.4955 16.0996 23.7007 18.0182C22.906 19.9368 21.5602 21.5767 19.8335 22.7304C18.1068 23.8842 16.0767 24.5 14 24.5C11.2152 24.5 8.54452 23.3938 6.57539 21.4246C4.60625 19.4555 3.50001 16.7848 3.50001 14Z" fill="#555555"/>
</svg>
